<svg xmlns="http://www.w3.org/2000/svg" width="284.5006103515625" height="239.8138427734375" viewBox="-172.48684692382812 -113.3197021484375 284.5006103515625 239.8138427734375"><title>Neo4j Graph Visualization</title><desc>Created using Neo4j (http://www.neo4j.com/)</desc><g class="layer relationships"><g class="relationship" transform="translate(-143.48684219199615 92.84958894577294) rotate(358.15872502698926)"><path class="outline" fill="#A5ABB6" stroke="none" d="M 21.40063509461097,12.933012701892217 L 21.90063509461097,12.06698729810778 A 101.97705207512584 101.97705207512584 0 0 0 60.9862119296047,25.032272314301423 L 60.86949008914789,26.025436959242228 A 102.97705207512584 102.97705207512584 0 0 1 21.40063509461097,12.933012701892217 Z M 80.26598517886202,26.46476017761462 L 80.19434956783961,25.46732930821392 A 101.97705207512584 101.97705207512584 0 0 0 119.8268611364564,14.284978981078362 L 118.44602988915665,11.621653040364269 L 126.27142687267258,11.506927060831291 L 121.66796946618939,17.83608023536382 L 120.28713821888964,15.172754294649726 A 102.97705207512584 102.97705207512584 0 0 1 80.26598517886202,26.46476017761462"/><text text-anchor="middle" pointer-events="none" font-size="8px" fill="#000000" x="70.56869010523626" y="29.203046150553448" font-family="sans-serif">trek</text></g><g class="relationship" transform="translate(4.902310644295307 88.07926673918315) rotate(301.92251478343525)"><path class="outline" fill="#A5ABB6" stroke="none" d="M 25 0.5 L 60.69324250147778 0.5 L 60.69324250147778 -0.5 L 25 -0.5 Z M 80.02918000147778 0.5 L 115.72242250295557 0.5 L 115.72242250295557 3.5 L 122.72242250295557 0 L 115.72242250295557 -3.5 L 115.72242250295557 -0.5 L 80.02918000147778 -0.5 Z"/><text text-anchor="middle" pointer-events="none" font-size="8px" fill="#000000" x="70.36121125147778" y="3" font-family="sans-serif">trek</text></g><g class="relationship" transform="translate(83.01377716127904 -37.302202819551255) rotate(198.85408713844305)"><path class="outline" fill="#A5ABB6" stroke="none" d="M 25 0.5 L 59.57869072338376 0.5 L 59.57869072338376 -0.5 L 25 -0.5 Z M 78.91462822338376 0.5 L 113.49331894676752 0.5 L 113.49331894676752 3.5 L 120.49331894676752 0 L 113.49331894676752 -3.5 L 113.49331894676752 -0.5 L 78.91462822338376 -0.5 Z"/><text text-anchor="middle" pointer-events="none" font-size="8px" fill="#000000" x="69.24665947338376" y="3" transform="rotate(180 69.24665947338376 0)" font-family="sans-serif">trek</text></g><g class="relationship" transform="translate(-143.48684219199615 92.84958894577294) rotate(358.15872502698926)"><path class="outline" fill="#A5ABB6" stroke="none" d="M 25 0.5 L 59.727045480978376 0.5 L 59.727045480978376 -0.5 L 25 -0.5 Z M 81.73876423097838 0.5 L 116.46580971195675 0.5 L 116.46580971195675 3.5 L 123.46580971195675 0 L 116.46580971195675 -3.5 L 116.46580971195675 -0.5 L 81.73876423097838 -0.5 Z"/><text text-anchor="middle" pointer-events="none" font-size="8px" fill="#000000" x="70.73290485597838" y="3" font-family="sans-serif">road</text></g><g class="relationship" transform="translate(-143.48684219199615 92.84958894577294) rotate(358.15872502698926)"><path class="outline" fill="#A5ABB6" stroke="none" d="M 21.40063509461097,-12.933012701892217 L 21.90063509461097,-12.06698729810778 A 101.97705207512584 101.97705207512584 0 0 1 40.43936494641858,-20.428688012398794 L 40.12115809962867,-21.37670932157704 A 102.97705207512584 102.97705207512584 0 0 0 21.40063509461097,-12.933012701892217 Z M 101.20351591994535,-22.760201436996724 L 100.92855801216687,-21.79874517228673 A 101.97705207512584 101.97705207512584 0 0 1 119.8268611364564,-14.284978981078362 L 118.44602988915665,-11.621653040364269 L 126.27142687267258,-11.506927060831291 L 121.66796946618939,-17.83608023536382 L 120.28713821888964,-15.172754294649726 A 102.97705207512584 102.97705207512584 0 0 0 101.20351591994535,-22.760201436996724"/><text text-anchor="middle" pointer-events="none" font-size="8px" fill="#000000" x="70.56869010523626" y="-23.203046150553448" font-family="sans-serif">PublicTransport</text></g></g><g class="layer nodes"><g class="node" aria-label="graph-node181" transform="translate(-143.48684219199615,92.84958894577294)"><circle class="outline" cx="0" cy="0" r="25" fill="#57C7E3" stroke="#23b3d7" stroke-width="2px"/><text class="caption" text-anchor="middle" pointer-events="none" x="0" y="5" font-size="10px" fill="#2A2C34" font-family="sans-serif"> Darjeeling</text></g><g class="node" aria-label="graph-node183" transform="translate(-54.67304246770429,-84.31970550314374)"><circle class="outline" cx="0" cy="0" r="25" fill="#D9C8AE" stroke="#c0a378" stroke-width="2px"/><text class="caption" text-anchor="middle" pointer-events="none" x="0" y="5" font-size="10px" fill="#2A2C34" font-family="sans-serif"> Sandakp…</text></g><g class="node" aria-label="graph-node179" transform="translate(4.902310644295307,88.07926673918315)"><circle class="outline" cx="0" cy="0" r="25" fill="#57C7E3" stroke="#23b3d7" stroke-width="2px"/><text class="caption" text-anchor="middle" pointer-events="none" x="0" y="5" font-size="10px" fill="#2A2C34" font-family="sans-serif"> Rimbik</text></g><g class="node" aria-label="graph-node182" transform="translate(83.01377716127904,-37.302202819551255)"><circle class="outline" cx="0" cy="0" r="25" fill="#F16667" stroke="#eb2728" stroke-width="2px"/><text class="caption" text-anchor="middle" pointer-events="none" x="0" y="5" font-size="10px" fill="#FFFFFF" font-family="sans-serif"> BhikeBh…</text></g></g></svg>