<svg xmlns="http://www.w3.org/2000/svg" width="298.5810546875" height="259.0224914550781" viewBox="-171.4746856689453 -119.80258178710938 298.5810546875 259.0224914550781"><title>Neo4j Graph Visualization</title><desc>Created using Neo4j (http://www.neo4j.com/)</desc><g class="layer relationships"><g class="relationship" transform="translate(-142.47468772352227 106.71045696484637) rotate(355.36859486702906)"><path class="outline" fill="#A5ABB6" stroke="none" d="M 21.40063509461097,12.933012701892217 L 21.90063509461097,12.06698729810778 A 100.60709408406845 100.60709408406845 0 0 0 60.31355587881467,24.840641891342244 L 60.19536713311952,25.833633039535925 A 101.60709408406845 101.60709408406845 0 0 1 21.40063509461097,12.933012701892217 Z M 79.59226504815344,26.276823976692498 L 79.51955277369949,25.279471017533226 A 100.60709408406845 100.60709408406845 0 0 0 118.47580140968645,14.273589542070553 L 117.09602934606708,11.609714722854093 L 124.92147133179476,11.498100530161423 L 120.31549749451229,17.825422634359168 L 118.93572543089292,15.161547815142708 A 101.60709408406845 101.60709408406845 0 0 1 79.59226504815344,26.276823976692498"/><text text-anchor="middle" pointer-events="none" font-size="8px" fill="#000000" x="69.89463470524765" y="29.01940064541769" font-family="sans-serif">trek</text></g><g class="relationship" transform="translate(4.165358377393459 94.83117832131487) rotate(309.6369907062276)"><path class="outline" fill="#A5ABB6" stroke="none" d="M 25 0.5 L 60.462605748932674 0.5 L 60.462605748932674 -0.5 L 25 -0.5 Z M 79.79854324893267 0.5 L 115.26114899786535 0.5 L 115.26114899786535 3.5 L 122.26114899786535 0 L 115.26114899786535 -3.5 L 115.26114899786535 -0.5 L 79.79854324893267 -0.5 Z"/><text text-anchor="middle" pointer-events="none" font-size="8px" fill="#000000" x="70.13057449893267" y="3" font-family="sans-serif">trek</text></g><g class="relationship" transform="translate(98.10638310924534 -18.574861537685123) rotate(210.0609095723467)"><path class="outline" fill="#A5ABB6" stroke="none" d="M 25 0.5 L 58.92704497841946 0.5 L 58.92704497841946 -0.5 L 25 -0.5 Z M 78.26298247841946 0.5 L 112.19002745683892 0.5 L 112.19002745683892 3.5 L 119.19002745683892 0 L 112.19002745683892 -3.5 L 112.19002745683892 -0.5 L 78.26298247841946 -0.5 Z"/><text text-anchor="middle" pointer-events="none" font-size="8px" fill="#000000" x="68.59501372841946" y="3" transform="rotate(180 68.59501372841946 0)" font-family="sans-serif">trek</text></g><g class="relationship" transform="translate(-142.47468772352227 106.71045696484637) rotate(355.36859486702906)"><path class="outline" fill="#A5ABB6" stroke="none" d="M 25 0.5 L 59.05435470429927 0.5 L 59.05435470429927 -0.5 L 25 -0.5 Z M 81.06607345429927 0.5 L 115.12042815859854 0.5 L 115.12042815859854 3.5 L 122.12042815859854 0 L 115.12042815859854 -3.5 L 115.12042815859854 -0.5 L 81.06607345429927 -0.5 Z"/><text text-anchor="middle" pointer-events="none" font-size="8px" fill="#000000" x="70.06021407929927" y="3" font-family="sans-serif">road</text></g><g class="relationship" transform="translate(-142.47468772352227 106.71045696484637) rotate(355.36859486702906)"><path class="outline" fill="#A5ABB6" stroke="none" d="M 21.40063509461097,-12.933012701892217 L 21.90063509461097,-12.06698729810778 A 100.60709408406845 100.60709408406845 0 0 1 39.78240884707725,-20.1784696076936 L 39.46014754349088,-21.125120362835546 A 101.60709408406845 101.60709408406845 0 0 0 21.40063509461097,-12.933012701892217 Z M 100.52089911656935,-22.52026982599699 L 100.24221073132239,-21.559888243536946 A 100.60709408406845 100.60709408406845 0 0 1 118.47580140968645,-14.273589542070553 L 117.09602934606708,-11.609714722854093 L 124.92147133179476,-11.498100530161423 L 120.31549749451229,-17.825422634359168 L 118.93572543089292,-15.161547815142708 A 101.60709408406845 101.60709408406845 0 0 0 100.52089911656935,-22.52026982599699"/><text text-anchor="middle" pointer-events="none" font-size="8px" fill="#000000" x="69.89463470524765" y="-23.01940064541769" font-family="sans-serif">PublicTransport</text></g></g><g class="layer nodes"><g class="node" aria-label="graph-node181" transform="translate(-142.47468772352227,106.71045696484637)"><circle class="outline" cx="0" cy="0" r="25" fill="#57C7E3" stroke="#23b3d7" stroke-width="2px"/><text class="caption" text-anchor="middle" pointer-events="none" x="0" y="5" font-size="10px" fill="#2A2C34" font-family="sans-serif"> Darjeeling</text></g><g class="node" aria-label="graph-node183" transform="translate(-26.68913086219096,-90.80258274366675)"><circle class="outline" cx="0" cy="0" r="25" fill="#D9C8AE" stroke="#c0a378" stroke-width="2px"/><text class="caption" text-anchor="middle" pointer-events="none" x="0" y="5" font-size="10px" fill="#2A2C34" font-family="sans-serif"> Sandakp…</text></g><g class="node" aria-label="graph-node179" transform="translate(4.165358377393459,94.83117832131487)"><circle class="outline" cx="0" cy="0" r="25" fill="#57C7E3" stroke="#23b3d7" stroke-width="2px"/><text class="caption" text-anchor="middle" pointer-events="none" x="0" y="5" font-size="10px" fill="#2A2C34" font-family="sans-serif"> Rimbik</text></g><g class="node" aria-label="graph-node182" transform="translate(98.10638310924534,-18.574861537685123)"><circle class="outline" cx="0" cy="0" r="25" fill="#F16667" stroke="#eb2728" stroke-width="2px"/><text class="caption" text-anchor="middle" pointer-events="none" x="0" y="5" font-size="10px" fill="#FFFFFF" font-family="sans-serif"> BhikeBh…</text></g></g></svg>