<svg xmlns="http://www.w3.org/2000/svg" width="664.831298828125" height="829.5982666015625" viewBox="-350.1562194824219 -506.7685546875 664.831298828125 829.5982666015625"><title>Neo4j Graph Visualization</title><desc>Created using Neo4j (http://www.neo4j.com/)</desc><g class="layer relationships"><g class="relationship" transform="translate(-55.09701701636807 125.75487193594513) rotate(436.85526456019335)"><path class="outline" fill="#A5ABB6" stroke="none" d="M 25 0.5 L 53.20286410579091 0.5 L 53.20286410579091 -0.5 L 25 -0.5 Z M 112.39427035579091 0.5 L 140.59713446158182 0.5 L 140.59713446158182 3.5 L 147.59713446158182 0 L 140.59713446158182 -3.5 L 140.59713446158182 -0.5 L 112.39427035579091 -0.5 Z"/><text text-anchor="middle" pointer-events="none" font-size="8px" fill="#000000" x="82.79856723079091" y="3" font-family="sans-serif">DESTINATION</text></g><g class="relationship" transform="translate(-55.09701701636807 125.75487193594513) rotate(254.68757426204735)"><path class="outline" fill="#A5ABB6" stroke="none" d="M 25 0.5 L 109.79830299415585 0.5 L 109.79830299415585 -0.5 L 25 -0.5 Z M 144.24361549415585 0.5 L 229.0419184883117 0.5 L 229.0419184883117 3.5 L 236.0419184883117 0 L 229.0419184883117 -3.5 L 229.0419184883117 -0.5 L 144.24361549415585 -0.5 Z"/><text text-anchor="middle" pointer-events="none" font-size="8px" fill="#000000" x="127.02095924415585" y="3" transform="rotate(180 127.02095924415585 0)" font-family="sans-serif">ORIGIN</text></g><g class="relationship" transform="translate(-217.56219846145515 50.33855905853583) rotate(268.0997539110556)"><path class="outline" fill="#A5ABB6" stroke="none" d="M 25 0.5 L 53.00155086875178 0.5 L 53.00155086875178 -0.5 L 25 -0.5 Z M 112.19295711875178 0.5 L 140.19450798750356 0.5 L 140.19450798750356 3.5 L 147.19450798750356 0 L 140.19450798750356 -3.5 L 140.19450798750356 -0.5 L 112.19295711875178 -0.5 Z"/><text text-anchor="middle" pointer-events="none" font-size="8px" fill="#000000" x="82.59725399375178" y="3" transform="rotate(180 82.59725399375178 0)" font-family="sans-serif">DESTINATION</text></g><g class="relationship" transform="translate(-217.56219846145515 50.33855905853583) rotate(297.9384404446239)"><path class="outline" fill="#A5ABB6" stroke="none" d="M 25 0.5 L 79.08965009176153 0.5 L 79.08965009176153 -0.5 L 25 -0.5 Z M 113.53496259176153 0.5 L 167.62461268352305 0.5 L 167.62461268352305 3.5 L 174.62461268352305 0 L 167.62461268352305 -3.5 L 167.62461268352305 -0.5 L 113.53496259176153 -0.5 Z"/><text text-anchor="middle" pointer-events="none" font-size="8px" fill="#000000" x="96.31230634176153" y="3" font-family="sans-serif">ORIGIN</text></g><g class="relationship" transform="translate(-118.15670175721283 48.66341285014735) rotate(295.3595351618855)"><path class="outline" fill="#A5ABB6" stroke="none" d="M 25 0.5 L 27.291137459269812 0.5 L 27.291137459269812 -0.5 L 25 -0.5 Z M 64.8497312092698 0.5 L 67.14086866853962 0.5 L 67.14086866853962 3.5 L 74.14086866853962 0 L 67.14086866853962 -3.5 L 67.14086866853962 -0.5 L 64.8497312092698 -0.5 Z"/><text text-anchor="middle" pointer-events="none" font-size="8px" fill="#000000" x="46.07043433426981" y="3" font-family="sans-serif">DESTI…</text></g><g class="relationship" transform="translate(-118.15670175721283 48.66341285014735) rotate(268.07313500107585)"><path class="outline" fill="#A5ABB6" stroke="none" d="M 25 0.5 L 66.66851598460482 0.5 L 66.66851598460482 -0.5 L 25 -0.5 Z M 101.11382848460482 0.5 L 142.78234446920965 0.5 L 142.78234446920965 3.5 L 149.78234446920965 0 L 142.78234446920965 -3.5 L 142.78234446920965 -0.5 L 101.11382848460482 -0.5 Z"/><text text-anchor="middle" pointer-events="none" font-size="8px" fill="#000000" x="83.89117223460482" y="3" transform="rotate(180 83.89117223460482 0)" font-family="sans-serif">ORIGIN</text></g><g class="relationship" transform="translate(43.847144312759866 -43.91535574773549) rotate(538.5665819664197)"><path class="outline" fill="#A5ABB6" stroke="none" d="M 25 0.5 L 26.69405911652325 0.5 L 26.69405911652325 -0.5 L 25 -0.5 Z M 85.88546536652325 0.5 L 87.5795244830465 0.5 L 87.5795244830465 3.5 L 94.5795244830465 0 L 87.5795244830465 -3.5 L 87.5795244830465 -0.5 L 85.88546536652325 -0.5 Z"/><text text-anchor="middle" pointer-events="none" font-size="8px" fill="#000000" x="56.28976224152325" y="3" transform="rotate(180 56.28976224152325 0)" font-family="sans-serif">DESTINATION</text></g><g class="relationship" transform="translate(43.847144312759866 -43.91535574773549) rotate(206.06168715584636)"><path class="outline" fill="#A5ABB6" stroke="none" d="M 25 0.5 L 72.71865744921503 0.5 L 72.71865744921503 -0.5 L 25 -0.5 Z M 107.16396994921503 0.5 L 154.88262739843006 0.5 L 154.88262739843006 3.5 L 161.88262739843006 0 L 154.88262739843006 -3.5 L 154.88262739843006 -0.5 L 107.16396994921503 -0.5 Z"/><text text-anchor="middle" pointer-events="none" font-size="8px" fill="#000000" x="89.94131369921503" y="3" transform="rotate(180 89.94131369921503 0)" font-family="sans-serif">ORIGIN</text></g><g class="relationship" transform="translate(-15.438332513778633 35.81932626583288) rotate(268.243899795972)"><path class="outline" fill="#A5ABB6" stroke="none" d="M 25 0.5 L 44.107439436490594 0.5 L 44.107439436490594 -0.5 L 25 -0.5 Z M 103.2988456864906 0.5 L 122.40628512298119 0.5 L 122.40628512298119 3.5 L 129.4062851229812 0 L 122.40628512298119 -3.5 L 122.40628512298119 -0.5 L 103.2988456864906 -0.5 Z"/><text text-anchor="middle" pointer-events="none" font-size="8px" fill="#000000" x="73.7031425614906" y="3" transform="rotate(180 73.7031425614906 0)" font-family="sans-serif">DESTINATION</text></g><g class="relationship" transform="translate(-15.438332513778633 35.81932626583288) rotate(236.13815464831112)"><path class="outline" fill="#A5ABB6" stroke="none" d="M 25 0.5 L 76.72594772164238 0.5 L 76.72594772164238 -0.5 L 25 -0.5 Z M 111.17126022164238 0.5 L 162.89720794328477 0.5 L 162.89720794328477 3.5 L 169.89720794328477 0 L 162.89720794328477 -3.5 L 162.89720794328477 -0.5 L 111.17126022164238 -0.5 Z"/><text text-anchor="middle" pointer-events="none" font-size="8px" fill="#000000" x="93.94860397164238" y="3" transform="rotate(180 93.94860397164238 0)" font-family="sans-serif">ORIGIN</text></g><g class="relationship" transform="translate(82.45763565620835 47.176003776313955) rotate(460.98248586824025)"><path class="outline" fill="#A5ABB6" stroke="none" d="M 25 0.5 L 54.181695132727086 0.5 L 54.181695132727086 -0.5 L 25 -0.5 Z M 113.37310138272709 0.5 L 142.55479651545417 0.5 L 142.55479651545417 3.5 L 149.55479651545417 0 L 142.55479651545417 -3.5 L 142.55479651545417 -0.5 L 113.37310138272709 -0.5 Z"/><text text-anchor="middle" pointer-events="none" font-size="8px" fill="#000000" x="83.77739825772709" y="3" transform="rotate(180 83.77739825772709 0)" font-family="sans-serif">DESTINATION</text></g><g class="relationship" transform="translate(82.45763565620835 47.176003776313955) rotate(219.9885073297072)"><path class="outline" fill="#A5ABB6" stroke="none" d="M 25 0.5 L 114.0322141187803 0.5 L 114.0322141187803 -0.5 L 25 -0.5 Z M 148.4775266187803 0.5 L 237.5097407375606 0.5 L 237.5097407375606 3.5 L 244.5097407375606 0 L 237.5097407375606 -3.5 L 237.5097407375606 -0.5 L 148.4775266187803 -0.5 Z"/><text text-anchor="middle" pointer-events="none" font-size="8px" fill="#000000" x="131.2548703687803" y="3" transform="rotate(180 131.2548703687803 0)" font-family="sans-serif">ORIGIN</text></g><g class="relationship" transform="translate(141.17073381861616 -61.855843921347365) rotate(322.46200889971124)"><path class="outline" fill="#A5ABB6" stroke="none" d="M 25 0.5 L 58.02253981205905 0.5 L 58.02253981205905 -0.5 L 25 -0.5 Z M 117.21394606205905 0.5 L 150.2364858741181 0.5 L 150.2364858741181 3.5 L 157.2364858741181 0 L 150.2364858741181 -3.5 L 150.2364858741181 -0.5 L 117.21394606205905 -0.5 Z"/><text text-anchor="middle" pointer-events="none" font-size="8px" fill="#000000" x="87.61824293705905" y="3" font-family="sans-serif">DESTINATION</text></g><g class="relationship" transform="translate(141.17073381861616 -61.855843921347365) rotate(193.60093693168142)"><path class="outline" fill="#A5ABB6" stroke="none" d="M 25 0.5 L 115.7053131644702 0.5 L 115.7053131644702 -0.5 L 25 -0.5 Z M 150.1506256644702 0.5 L 240.8559388289404 0.5 L 240.8559388289404 3.5 L 247.8559388289404 0 L 240.8559388289404 -3.5 L 240.8559388289404 -0.5 L 150.1506256644702 -0.5 Z"/><text text-anchor="middle" pointer-events="none" font-size="8px" fill="#000000" x="132.9279694144702" y="3" transform="rotate(180 132.9279694144702 0)" font-family="sans-serif">ORIGIN</text></g><g class="relationship" transform="translate(112.18671838355175 -229.60895080204148) rotate(378.1041741181644)"><path class="outline" fill="#A5ABB6" stroke="none" d="M 25 0.5 L 58.1665844404024 0.5 L 58.1665844404024 -0.5 L 25 -0.5 Z M 117.3579906904024 0.5 L 150.5245751308048 0.5 L 150.5245751308048 3.5 L 157.5245751308048 0 L 150.5245751308048 -3.5 L 150.5245751308048 -0.5 L 117.3579906904024 -0.5 Z"/><text text-anchor="middle" pointer-events="none" font-size="8px" fill="#000000" x="87.7622875654024" y="3" font-family="sans-serif">DESTINATION</text></g><g class="relationship" transform="translate(112.18671838355175 -229.60895080204148) rotate(516.3212753243511)"><path class="outline" fill="#A5ABB6" stroke="none" d="M 25 0.5 L 108.24503721601138 0.5 L 108.24503721601138 -0.5 L 25 -0.5 Z M 142.69034971601138 0.5 L 225.93538693202277 0.5 L 225.93538693202277 3.5 L 232.93538693202277 0 L 225.93538693202277 -3.5 L 225.93538693202277 -0.5 L 142.69034971601138 -0.5 Z"/><text text-anchor="middle" pointer-events="none" font-size="8px" fill="#000000" x="125.46769346601138" y="3" transform="rotate(180 125.46769346601138 0)" font-family="sans-serif">ORIGIN</text></g><g class="relationship" transform="translate(32.74901783215313 -308.0380629625422) rotate(501.4319235742857)"><path class="outline" fill="#A5ABB6" stroke="none" d="M 25 0.5 L 41.011061320457955 0.5 L 41.011061320457955 -0.5 L 25 -0.5 Z M 100.20246757045796 0.5 L 116.21352889091591 0.5 L 116.21352889091591 3.5 L 123.21352889091591 0 L 116.21352889091591 -3.5 L 116.21352889091591 -0.5 L 100.20246757045796 -0.5 Z"/><text text-anchor="middle" pointer-events="none" font-size="8px" fill="#000000" x="70.60676444545796" y="3" transform="rotate(180 70.60676444545796 0)" font-family="sans-serif">DESTINATION</text></g><g class="relationship" transform="translate(32.74901783215313 -308.0380629625422) rotate(490.74021749945064)"><path class="outline" fill="#A5ABB6" stroke="none" d="M 25 0.5 L 99.39323662884657 0.5 L 99.39323662884657 -0.5 L 25 -0.5 Z M 133.83854912884658 0.5 L 208.23178575769313 0.5 L 208.23178575769313 3.5 L 215.23178575769313 0 L 208.23178575769313 -3.5 L 208.23178575769313 -0.5 L 133.83854912884658 -0.5 Z"/><text text-anchor="middle" pointer-events="none" font-size="8px" fill="#000000" x="116.61589287884657" y="3" transform="rotate(180 116.61589287884657 0)" font-family="sans-serif">ORIGIN</text></g><g class="relationship" transform="translate(77.36777276196102 -135.67213388299052) rotate(508.2418811491611)"><path class="outline" fill="#A5ABB6" stroke="none" d="M 25 0.5 L 56.91179770291346 0.5 L 56.91179770291346 -0.5 L 25 -0.5 Z M 116.10320395291346 0.5 L 148.01500165582692 0.5 L 148.01500165582692 3.5 L 155.01500165582692 0 L 148.01500165582692 -3.5 L 148.01500165582692 -0.5 L 116.10320395291346 -0.5 Z"/><text text-anchor="middle" pointer-events="none" font-size="8px" fill="#000000" x="86.50750082791346" y="3" transform="rotate(180 86.50750082791346 0)" font-family="sans-serif">DESTINATION</text></g><g class="relationship" transform="translate(77.36777276196102 -135.67213388299052) rotate(537.2562352306857)"><path class="outline" fill="#A5ABB6" stroke="none" d="M 25 0.5 L 80.09357982508571 0.5 L 80.09357982508571 -0.5 L 25 -0.5 Z M 114.53889232508571 0.5 L 169.63247215017142 0.5 L 169.63247215017142 3.5 L 176.63247215017142 0 L 169.63247215017142 -3.5 L 169.63247215017142 -0.5 L 114.53889232508571 -0.5 Z"/><text text-anchor="middle" pointer-events="none" font-size="8px" fill="#000000" x="97.31623607508571" y="3" transform="rotate(180 97.31623607508571 0)" font-family="sans-serif">ORIGIN</text></g><g class="relationship" transform="translate(-139.56164076873213 -296.82272715402615) rotate(475.5560719903268)"><path class="outline" fill="#A5ABB6" stroke="none" d="M 25 0.5 L 63.92743373980343 0.5 L 63.92743373980343 -0.5 L 25 -0.5 Z M 123.11883998980343 0.5 L 162.04627372960687 0.5 L 162.04627372960687 3.5 L 169.04627372960687 0 L 162.04627372960687 -3.5 L 162.04627372960687 -0.5 L 123.11883998980343 -0.5 Z"/><text text-anchor="middle" pointer-events="none" font-size="8px" fill="#000000" x="93.52313686480343" y="3" transform="rotate(180 93.52313686480343 0)" font-family="sans-serif">DESTINATION</text></g><g class="relationship" transform="translate(-139.56164076873213 -296.82272715402615) rotate(444.8053777364309)"><path class="outline" fill="#A5ABB6" stroke="none" d="M 25 0.5 L 65.03085412806274 0.5 L 65.03085412806274 -0.5 L 25 -0.5 Z M 99.47616662806274 0.5 L 139.50702075612548 0.5 L 139.50702075612548 3.5 L 146.50702075612548 0 L 139.50702075612548 -3.5 L 139.50702075612548 -0.5 L 99.47616662806274 -0.5 Z"/><text text-anchor="middle" pointer-events="none" font-size="8px" fill="#000000" x="82.25351037806274" y="3" font-family="sans-serif">ORIGIN</text></g><g class="relationship" transform="translate(-56.6540497586301 -348.84004028267253) rotate(461.24348532636054)"><path class="outline" fill="#A5ABB6" stroke="none" d="M 25 0.5 L 34.809990550313174 0.5 L 34.809990550313174 -0.5 L 25 -0.5 Z M 94.00139680031317 0.5 L 103.81138735062635 0.5 L 103.81138735062635 3.5 L 110.81138735062635 0 L 103.81138735062635 -3.5 L 103.81138735062635 -0.5 L 94.00139680031317 -0.5 Z"/><text text-anchor="middle" pointer-events="none" font-size="8px" fill="#000000" x="64.40569367531317" y="3" transform="rotate(180 64.40569367531317 0)" font-family="sans-serif">DESTINATION</text></g><g class="relationship" transform="translate(-56.6540497586301 -348.84004028267253) rotate(466.82502196443914)"><path class="outline" fill="#A5ABB6" stroke="none" d="M 25 0.5 L 95.66969894983148 0.5 L 95.66969894983148 -0.5 L 25 -0.5 Z M 130.11501144983148 0.5 L 200.78471039966297 0.5 L 200.78471039966297 3.5 L 207.78471039966297 0 L 200.78471039966297 -3.5 L 200.78471039966297 -0.5 L 130.11501144983148 -0.5 Z"/><text text-anchor="middle" pointer-events="none" font-size="8px" fill="#000000" x="112.89235519983148" y="3" transform="rotate(180 112.89235519983148 0)" font-family="sans-serif">ORIGIN</text></g><g class="relationship" transform="translate(13.696512678953354 -211.31906809023482) rotate(477.68209492089613)"><path class="outline" fill="#A5ABB6" stroke="none" d="M 25 0.5 L 63.11409342619612 0.5 L 63.11409342619612 -0.5 L 25 -0.5 Z M 122.30549967619612 0.5 L 160.41959310239224 0.5 L 160.41959310239224 3.5 L 167.41959310239224 0 L 160.41959310239224 -3.5 L 160.41959310239224 -0.5 L 122.30549967619612 -0.5 Z"/><text text-anchor="middle" pointer-events="none" font-size="8px" fill="#000000" x="92.70979655119612" y="3" transform="rotate(180 92.70979655119612 0)" font-family="sans-serif">DESTINATION</text></g><g class="relationship" transform="translate(13.696512678953354 -211.31906809023482) rotate(508.2292435260394)"><path class="outline" fill="#A5ABB6" stroke="none" d="M 25 0.5 L 60.279632585135204 0.5 L 60.279632585135204 -0.5 L 25 -0.5 Z M 94.7249450851352 0.5 L 130.0045776702704 0.5 L 130.0045776702704 3.5 L 137.0045776702704 0 L 130.0045776702704 -3.5 L 130.0045776702704 -0.5 L 94.7249450851352 -0.5 Z"/><text text-anchor="middle" pointer-events="none" font-size="8px" fill="#000000" x="77.5022888351352" y="3" transform="rotate(180 77.5022888351352 0)" font-family="sans-serif">ORIGIN</text></g><g class="relationship" transform="translate(-315.6854100364739 -300.87504474671914) rotate(422.70863635034283)"><path class="outline" fill="#A5ABB6" stroke="none" d="M 25 0.5 L 67.6787652309458 0.5 L 67.6787652309458 -0.5 L 25 -0.5 Z M 126.8701714809458 0.5 L 169.5489367118916 0.5 L 169.5489367118916 3.5 L 176.5489367118916 0 L 169.5489367118916 -3.5 L 169.5489367118916 -0.5 L 126.8701714809458 -0.5 Z"/><text text-anchor="middle" pointer-events="none" font-size="8px" fill="#000000" x="97.2744683559458" y="3" font-family="sans-serif">DESTINATION</text></g><g class="relationship" transform="translate(-315.6854100364739 -300.87504474671914) rotate(402.375984144028)"><path class="outline" fill="#A5ABB6" stroke="none" d="M 25 0.5 L 108.99307801390026 0.5 L 108.99307801390026 -0.5 L 25 -0.5 Z M 143.43839051390026 0.5 L 227.43146852780052 0.5 L 227.43146852780052 3.5 L 234.43146852780052 0 L 227.43146852780052 -3.5 L 227.43146852780052 -0.5 L 143.43839051390026 -0.5 Z"/><text text-anchor="middle" pointer-events="none" font-size="8px" fill="#000000" x="126.21573426390026" y="3" font-family="sans-serif">ORIGIN</text></g><g class="relationship" transform="translate(-226.14566306648555 -342.83729373135395) rotate(237.56120664969922)"><path class="outline" fill="#A5ABB6" stroke="none" d="M 25 0.5 L 46.8432007014017 0.5 L 46.8432007014017 -0.5 L 25 -0.5 Z M 106.0346069514017 0.5 L 127.8778076528034 0.5 L 127.8778076528034 3.5 L 134.8778076528034 0 L 127.8778076528034 -3.5 L 127.8778076528034 -0.5 L 106.0346069514017 -0.5 Z"/><text text-anchor="middle" pointer-events="none" font-size="8px" fill="#000000" x="76.4389038264017" y="3" transform="rotate(180 76.4389038264017 0)" font-family="sans-serif">DESTINATION</text></g><g class="relationship" transform="translate(-226.14566306648555 -342.83729373135395) rotate(424.7814638422468)"><path class="outline" fill="#A5ABB6" stroke="none" d="M 25 0.5 L 99.10699189857384 0.5 L 99.10699189857384 -0.5 L 25 -0.5 Z M 133.55230439857382 0.5 L 207.65929629714768 0.5 L 207.65929629714768 3.5 L 214.65929629714768 0 L 207.65929629714768 -3.5 L 207.65929629714768 -0.5 L 133.55230439857382 -0.5 Z"/><text text-anchor="middle" pointer-events="none" font-size="8px" fill="#000000" x="116.32964814857384" y="3" font-family="sans-serif">ORIGIN</text></g><g class="relationship" transform="translate(-179.6701553790511 -208.487691511614) rotate(418.1799166156642)"><path class="outline" fill="#A5ABB6" stroke="none" d="M 25 0.5 L 65.50502883040213 0.5 L 65.50502883040213 -0.5 L 25 -0.5 Z M 124.69643508040213 0.5 L 165.20146391080425 0.5 L 165.20146391080425 3.5 L 172.20146391080425 0 L 165.20146391080425 -3.5 L 165.20146391080425 -0.5 L 124.69643508040213 -0.5 Z"/><text text-anchor="middle" pointer-events="none" font-size="8px" fill="#000000" x="95.10073195540213" y="3" font-family="sans-serif">DESTINATION</text></g><g class="relationship" transform="translate(-179.6701553790511 -208.487691511614) rotate(415.9945012400392)"><path class="outline" fill="#A5ABB6" stroke="none" d="M 25 0.5 L 29.0175067207158 0.5 L 29.0175067207158 -0.5 L 25 -0.5 Z M 63.4628192207158 0.5 L 67.4803259414316 0.5 L 67.4803259414316 3.5 L 74.4803259414316 0 L 67.4803259414316 -3.5 L 67.4803259414316 -0.5 L 63.4628192207158 -0.5 Z"/><text text-anchor="middle" pointer-events="none" font-size="8px" fill="#000000" x="46.2401629707158" y="3" font-family="sans-serif">ORIGIN</text></g><g class="relationship" transform="translate(-276.95164435296647 -204.9912512011404) rotate(399.18739081255694)"><path class="outline" fill="#A5ABB6" stroke="none" d="M 25 0.5 L 96.7333205949399 0.5 L 96.7333205949399 -0.5 L 25 -0.5 Z M 155.9247268449399 0.5 L 227.6580474398798 0.5 L 227.6580474398798 3.5 L 234.6580474398798 0 L 227.6580474398798 -3.5 L 227.6580474398798 -0.5 L 155.9247268449399 -0.5 Z"/><text text-anchor="middle" pointer-events="none" font-size="8px" fill="#000000" x="126.3290237199399" y="3" font-family="sans-serif">DESTINATION</text></g><g class="relationship" transform="translate(-276.95164435296647 -204.9912512011404) rotate(387.31308563540296)"><path class="outline" fill="#A5ABB6" stroke="none" d="M 25 0.5 L 65.33021470250696 0.5 L 65.33021470250696 -0.5 L 25 -0.5 Z M 99.77552720250696 0.5 L 140.10574190501393 0.5 L 140.10574190501393 3.5 L 147.10574190501393 0 L 140.10574190501393 -3.5 L 140.10574190501393 -0.5 L 99.77552720250696 -0.5 Z"/><text text-anchor="middle" pointer-events="none" font-size="8px" fill="#000000" x="82.55287095250696" y="3" font-family="sans-serif">ORIGIN</text></g><g class="relationship" transform="translate(-268.6587585012984 -35.597095242529925) rotate(358.41869740271477)"><path class="outline" fill="#A5ABB6" stroke="none" d="M 25 0.5 L 63.42295293756166 0.5 L 63.42295293756166 -0.5 L 25 -0.5 Z M 122.61435918756166 0.5 L 161.03731212512332 0.5 L 161.03731212512332 3.5 L 168.03731212512332 0 L 161.03731212512332 -3.5 L 161.03731212512332 -0.5 L 122.61435918756166 -0.5 Z"/><text text-anchor="middle" pointer-events="none" font-size="8px" fill="#000000" x="93.01865606256166" y="3" font-family="sans-serif">DESTINATION</text></g><g class="relationship" transform="translate(-268.6587585012984 -35.597095242529925) rotate(327.98542988011764)"><path class="outline" fill="#A5ABB6" stroke="none" d="M 25 0.5 L 64.5603603940552 0.5 L 64.5603603940552 -0.5 L 25 -0.5 Z M 99.0056728940552 0.5 L 138.5660332881104 0.5 L 138.5660332881104 3.5 L 145.5660332881104 0 L 138.5660332881104 -3.5 L 138.5660332881104 -0.5 L 99.0056728940552 -0.5 Z"/><text text-anchor="middle" pointer-events="none" font-size="8px" fill="#000000" x="81.7830166440552" y="3" font-family="sans-serif">ORIGIN</text></g><g class="relationship" transform="translate(-321.1562066094436 -118.26169665623507) rotate(337.7507780685453)"><path class="outline" fill="#A5ABB6" stroke="none" d="M 25 0.5 L 95.48888703394312 0.5 L 95.48888703394312 -0.5 L 25 -0.5 Z M 154.68029328394312 0.5 L 225.16918031788623 0.5 L 225.16918031788623 3.5 L 232.16918031788623 0 L 225.16918031788623 -3.5 L 225.16918031788623 -0.5 L 154.68029328394312 -0.5 Z"/><text text-anchor="middle" pointer-events="none" font-size="8px" fill="#000000" x="125.08459015894312" y="3" font-family="sans-serif">DESTINATION</text></g><g class="relationship" transform="translate(-321.1562066094436 -118.26169665623507) rotate(357.74610079374975)"><path class="outline" fill="#A5ABB6" stroke="none" d="M 25 0.5 L 77.91498272365125 0.5 L 77.91498272365125 -0.5 L 25 -0.5 Z M 112.36029522365125 0.5 L 165.2752779473025 0.5 L 165.2752779473025 3.5 L 172.2752779473025 0 L 165.2752779473025 -3.5 L 165.2752779473025 -0.5 L 112.36029522365125 -0.5 Z"/><text text-anchor="middle" pointer-events="none" font-size="8px" fill="#000000" x="95.13763897365125" y="3" font-family="sans-serif">ORIGIN</text></g><g class="relationship" transform="translate(-171.45875341079076 -37.39818216045497) rotate(296.3604568404629)"><path class="outline" fill="#A5ABB6" stroke="none" d="M 25 0.5 L 66.36488477082302 0.5 L 66.36488477082302 -0.5 L 25 -0.5 Z M 125.55629102082302 0.5 L 166.92117579164605 0.5 L 166.92117579164605 3.5 L 173.92117579164605 0 L 166.92117579164605 -3.5 L 166.92117579164605 -0.5 L 125.55629102082302 -0.5 Z"/><text text-anchor="middle" pointer-events="none" font-size="8px" fill="#000000" x="95.96058789582302" y="3" font-family="sans-serif">DESTINATION</text></g><g class="relationship" transform="translate(-171.45875341079076 -37.39818216045497) rotate(298.1530527076553)"><path class="outline" fill="#A5ABB6" stroke="none" d="M 25 0.5 L 29.534171359135506 0.5 L 29.534171359135506 -0.5 L 25 -0.5 Z M 63.979483859135506 0.5 L 68.51365521827101 0.5 L 68.51365521827101 3.5 L 75.51365521827101 0 L 68.51365521827101 -3.5 L 68.51365521827101 -0.5 L 63.979483859135506 -0.5 Z"/><text text-anchor="middle" pointer-events="none" font-size="8px" fill="#000000" x="46.756827609135506" y="3" font-family="sans-serif">ORIGIN</text></g><g class="relationship" transform="translate(-316.4051625124169 48.61817145567018) rotate(298.661971837226)"><path class="outline" fill="#A5ABB6" stroke="none" d="M 25 0.5 L 63.990496194709834 0.5 L 63.990496194709834 -0.5 L 25 -0.5 Z M 123.18190244470983 0.5 L 162.17239863941967 0.5 L 162.17239863941967 3.5 L 169.17239863941967 0 L 162.17239863941967 -3.5 L 162.17239863941967 -0.5 L 123.18190244470983 -0.5 Z"/><text text-anchor="middle" pointer-events="none" font-size="8px" fill="#000000" x="93.58619931970983" y="3" font-family="sans-serif">DESTINATION</text></g><g class="relationship" transform="translate(-316.4051625124169 48.61817145567018) rotate(317.7662904156514)"><path class="outline" fill="#A5ABB6" stroke="none" d="M 25 0.5 L 109.18631646570981 0.5 L 109.18631646570981 -0.5 L 25 -0.5 Z M 143.6316289657098 0.5 L 227.81794543141962 0.5 L 227.81794543141962 3.5 L 234.81794543141962 0 L 227.81794543141962 -3.5 L 227.81794543141962 -0.5 L 143.6316289657098 -0.5 Z"/><text text-anchor="middle" pointer-events="none" font-size="8px" fill="#000000" x="126.40897271570981" y="3" font-family="sans-serif">ORIGIN</text></g><g class="relationship" transform="translate(-152.49288863912142 139.89543951196958) rotate(381.30009319535174)"><path class="outline" fill="#A5ABB6" stroke="none" d="M 25 0.5 L 75.14638388676974 0.5 L 75.14638388676974 -0.5 L 25 -0.5 Z M 134.33779013676974 0.5 L 184.48417402353948 0.5 L 184.48417402353948 3.5 L 191.48417402353948 0 L 184.48417402353948 -3.5 L 184.48417402353948 -0.5 L 134.33779013676974 -0.5 Z"/><text text-anchor="middle" pointer-events="none" font-size="8px" fill="#000000" x="104.74208701176974" y="3" font-family="sans-serif">DESTINATION</text></g><g class="relationship" transform="translate(-152.49288863912142 139.89543951196958) rotate(276.1087697695739)"><path class="outline" fill="#A5ABB6" stroke="none" d="M 25 0.5 L 112.99440479262239 0.5 L 112.99440479262239 -0.5 L 25 -0.5 Z M 147.4397172926224 0.5 L 235.43412208524478 0.5 L 235.43412208524478 3.5 L 242.43412208524478 0 L 235.43412208524478 -3.5 L 235.43412208524478 -0.5 L 147.4397172926224 -0.5 Z"/><text text-anchor="middle" pointer-events="none" font-size="8px" fill="#000000" x="130.2170610426224" y="3" font-family="sans-serif">ORIGIN</text></g></g><g class="layer nodes"><g class="node" aria-label="graph-node215" transform="translate(-15.846409265723109,293.82973803898375)"><circle class="outline" cx="0" cy="0" r="25" fill="#8DCC93" stroke="#5db665" stroke-width="2px"/><text class="caption" text-anchor="middle" pointer-events="none" x="0" y="5" font-size="10px" fill="#2A2C34" font-family="sans-serif"> LAS</text></g><g class="node" aria-label="graph-node195" transform="translate(-124.03354828603563,-126.02010272310334)"><circle class="outline" cx="0" cy="0" r="25" fill="#8DCC93" stroke="#5db665" stroke-width="2px"/><text class="caption" text-anchor="middle" pointer-events="none" x="0" y="5" font-size="10px" fill="#2A2C34" font-family="sans-serif"> LAX</text></g><g class="node" aria-label="graph-node203" transform="translate(-223.27207727078508,-121.76125461086124)"><circle class="outline" cx="0" cy="0" r="25" fill="#8DCC93" stroke="#5db665" stroke-width="2px"/><text class="caption" text-anchor="middle" pointer-events="none" x="0" y="5" font-size="10px" fill="#2A2C34" font-family="sans-serif"> SMF</text></g><g class="node" aria-label="graph-node230" transform="translate(-75.6949600966711,-40.92404350120818)"><circle class="outline" cx="0" cy="0" r="25" fill="#8DCC93" stroke="#5db665" stroke-width="2px"/><text class="caption" text-anchor="middle" pointer-events="none" x="0" y="5" font-size="10px" fill="#2A2C34" font-family="sans-serif"> ABQ</text></g><g class="node" aria-label="graph-node206" transform="translate(-20.170102625437703,-118.51443944047577)"><circle class="outline" cx="0" cy="0" r="25" fill="#8DCC93" stroke="#5db665" stroke-width="2px"/><text class="caption" text-anchor="middle" pointer-events="none" x="0" y="5" font-size="10px" fill="#2A2C34" font-family="sans-serif"> BOS</text></g><g class="node" aria-label="graph-node191" transform="translate(49.20338929933858,218.5339101763054)"><circle class="outline" cx="0" cy="0" r="25" fill="#8DCC93" stroke="#5db665" stroke-width="2px"/><text class="caption" text-anchor="middle" pointer-events="none" x="0" y="5" font-size="10px" fill="#2A2C34" font-family="sans-serif"> EWR</text></g><g class="node" aria-label="graph-node232" transform="translate(285.6750668361079,-172.89022833859667)"><circle class="outline" cx="0" cy="0" r="25" fill="#8DCC93" stroke="#5db665" stroke-width="2px"/><text class="caption" text-anchor="middle" pointer-events="none" x="0" y="5" font-size="10px" fill="#2A2C34" font-family="sans-serif"> TUS</text></g><g class="node" aria-label="graph-node231" transform="translate(-83.13439149969818,-215.63521891580865)"><circle class="outline" cx="0" cy="0" r="25" fill="#8DCC93" stroke="#5db665" stroke-width="2px"/><text class="caption" text-anchor="middle" pointer-events="none" x="0" y="5" font-size="10px" fill="#2A2C34" font-family="sans-serif"> FAT</text></g><g class="node" aria-label="graph-node192" transform="translate(-311.9038541184124,-477.768557889695)"><circle class="outline" cx="0" cy="0" r="25" fill="#8DCC93" stroke="#5db665" stroke-width="2px"/><text class="caption" text-anchor="middle" pointer-events="none" x="0" y="5" font-size="10px" fill="#2A2C34" font-family="sans-serif"> IAH</text></g><g class="node" aria-label="graph-node849" transform="translate(-55.09701701636807,125.75487193594513)"><circle class="outline" cx="0" cy="0" r="25" fill="#ECB5C9" stroke="#da7298" stroke-width="2px"/><text class="caption" text-anchor="middle" pointer-events="none" x="0" y="5" font-size="10px" fill="#2A2C34" font-family="sans-serif"> 11/29/20…</text></g><g class="node" aria-label="graph-node1185" transform="translate(-217.56219846145515,50.33855905853583)"><circle class="outline" cx="0" cy="0" r="25" fill="#ECB5C9" stroke="#da7298" stroke-width="2px"/><text class="caption" text-anchor="middle" pointer-events="none" x="0" y="0" font-size="10px" fill="#2A2C34" font-family="sans-serif"> 11/2/2015</text><text class="caption" text-anchor="middle" pointer-events="none" x="0" y="10" font-size="10px" fill="#2A2C34" font-family="sans-serif"> 11:49:…</text></g><g class="node" aria-label="graph-node1113" transform="translate(-118.15670175721283,48.66341285014735)"><circle class="outline" cx="0" cy="0" r="25" fill="#ECB5C9" stroke="#da7298" stroke-width="2px"/><text class="caption" text-anchor="middle" pointer-events="none" x="0" y="0" font-size="10px" fill="#2A2C34" font-family="sans-serif"> 11/4/2015</text><text class="caption" text-anchor="middle" pointer-events="none" x="0" y="10" font-size="10px" fill="#2A2C34" font-family="sans-serif"> 15:09:…</text></g><g class="node" aria-label="graph-node1117" transform="translate(43.847144312759866,-43.91535574773549)"><circle class="outline" cx="0" cy="0" r="25" fill="#ECB5C9" stroke="#da7298" stroke-width="2px"/><text class="caption" text-anchor="middle" pointer-events="none" x="0" y="0" font-size="10px" fill="#2A2C34" font-family="sans-serif"> 11/1/2015</text><text class="caption" text-anchor="middle" pointer-events="none" x="0" y="10" font-size="10px" fill="#2A2C34" font-family="sans-serif"> 05:43:…</text></g><g class="node" aria-label="graph-node837" transform="translate(-15.438332513778633,35.81932626583288)"><circle class="outline" cx="0" cy="0" r="25" fill="#ECB5C9" stroke="#da7298" stroke-width="2px"/><text class="caption" text-anchor="middle" pointer-events="none" x="0" y="5" font-size="10px" fill="#2A2C34" font-family="sans-serif"> 11/29/20…</text></g><g class="node" aria-label="graph-node325" transform="translate(82.45763565620835,47.176003776313955)"><circle class="outline" cx="0" cy="0" r="25" fill="#ECB5C9" stroke="#da7298" stroke-width="2px"/><text class="caption" text-anchor="middle" pointer-events="none" x="0" y="5" font-size="10px" fill="#2A2C34" font-family="sans-serif"> 11/30/20…</text></g><g class="node" aria-label="graph-node1169" transform="translate(141.17073381861616,-61.855843921347365)"><circle class="outline" cx="0" cy="0" r="25" fill="#ECB5C9" stroke="#da7298" stroke-width="2px"/><text class="caption" text-anchor="middle" pointer-events="none" x="0" y="0" font-size="10px" fill="#2A2C34" font-family="sans-serif"> 11/1/2015</text><text class="caption" text-anchor="middle" pointer-events="none" x="0" y="10" font-size="10px" fill="#2A2C34" font-family="sans-serif"> 05:51:…</text></g><g class="node" aria-label="graph-node1173" transform="translate(112.18671838355175,-229.60895080204148)"><circle class="outline" cx="0" cy="0" r="25" fill="#ECB5C9" stroke="#da7298" stroke-width="2px"/><text class="caption" text-anchor="middle" pointer-events="none" x="0" y="0" font-size="10px" fill="#2A2C34" font-family="sans-serif"> 11/2/2015</text><text class="caption" text-anchor="middle" pointer-events="none" x="0" y="10" font-size="10px" fill="#2A2C34" font-family="sans-serif"> 09:52:…</text></g><g class="node" aria-label="graph-node1153" transform="translate(32.74901783215313,-308.0380629625422)"><circle class="outline" cx="0" cy="0" r="25" fill="#ECB5C9" stroke="#da7298" stroke-width="2px"/><text class="caption" text-anchor="middle" pointer-events="none" x="0" y="0" font-size="10px" fill="#2A2C34" font-family="sans-serif"> 11/4/2015</text><text class="caption" text-anchor="middle" pointer-events="none" x="0" y="10" font-size="10px" fill="#2A2C34" font-family="sans-serif"> 15:13:…</text></g><g class="node" aria-label="graph-node1165" transform="translate(77.36777276196102,-135.67213388299052)"><circle class="outline" cx="0" cy="0" r="25" fill="#ECB5C9" stroke="#da7298" stroke-width="2px"/><text class="caption" text-anchor="middle" pointer-events="none" x="0" y="0" font-size="10px" fill="#2A2C34" font-family="sans-serif"> 11/2/2015</text><text class="caption" text-anchor="middle" pointer-events="none" x="0" y="10" font-size="10px" fill="#2A2C34" font-family="sans-serif"> 15:15:…</text></g><g class="node" aria-label="graph-node1197" transform="translate(-139.56164076873213,-296.82272715402615)"><circle class="outline" cx="0" cy="0" r="25" fill="#ECB5C9" stroke="#da7298" stroke-width="2px"/><text class="caption" text-anchor="middle" pointer-events="none" x="0" y="0" font-size="10px" fill="#2A2C34" font-family="sans-serif"> 11/3/2015</text><text class="caption" text-anchor="middle" pointer-events="none" x="0" y="10" font-size="10px" fill="#2A2C34" font-family="sans-serif"> 13:44:…</text></g><g class="node" aria-label="graph-node1145" transform="translate(-56.6540497586301,-348.84004028267253)"><circle class="outline" cx="0" cy="0" r="25" fill="#ECB5C9" stroke="#da7298" stroke-width="2px"/><text class="caption" text-anchor="middle" pointer-events="none" x="0" y="0" font-size="10px" fill="#2A2C34" font-family="sans-serif"> 11/2/2015</text><text class="caption" text-anchor="middle" pointer-events="none" x="0" y="10" font-size="10px" fill="#2A2C34" font-family="sans-serif"> 09:18:…</text></g><g class="node" aria-label="graph-node1109" transform="translate(13.696512678953354,-211.31906809023482)"><circle class="outline" cx="0" cy="0" r="25" fill="#ECB5C9" stroke="#da7298" stroke-width="2px"/><text class="caption" text-anchor="middle" pointer-events="none" x="0" y="0" font-size="10px" fill="#2A2C34" font-family="sans-serif"> 11/2/2015</text><text class="caption" text-anchor="middle" pointer-events="none" x="0" y="10" font-size="10px" fill="#2A2C34" font-family="sans-serif"> 04:43:…</text></g><g class="node" aria-label="graph-node1189" transform="translate(-315.6854100364739,-300.87504474671914)"><circle class="outline" cx="0" cy="0" r="25" fill="#ECB5C9" stroke="#da7298" stroke-width="2px"/><text class="caption" text-anchor="middle" pointer-events="none" x="0" y="0" font-size="10px" fill="#2A2C34" font-family="sans-serif"> 11/1/2015</text><text class="caption" text-anchor="middle" pointer-events="none" x="0" y="10" font-size="10px" fill="#2A2C34" font-family="sans-serif"> 12:26:…</text></g><g class="node" aria-label="graph-node293" transform="translate(-226.14566306648555,-342.83729373135395)"><circle class="outline" cx="0" cy="0" r="25" fill="#ECB5C9" stroke="#da7298" stroke-width="2px"/><text class="caption" text-anchor="middle" pointer-events="none" x="0" y="5" font-size="10px" fill="#2A2C34" font-family="sans-serif"> 11/30/20…</text></g><g class="node" aria-label="graph-node1161" transform="translate(-179.6701553790511,-208.487691511614)"><circle class="outline" cx="0" cy="0" r="25" fill="#ECB5C9" stroke="#da7298" stroke-width="2px"/><text class="caption" text-anchor="middle" pointer-events="none" x="0" y="0" font-size="10px" fill="#2A2C34" font-family="sans-serif"> 11/1/2015</text><text class="caption" text-anchor="middle" pointer-events="none" x="0" y="10" font-size="10px" fill="#2A2C34" font-family="sans-serif"> 17:17:…</text></g><g class="node" aria-label="graph-node1121" transform="translate(-276.95164435296647,-204.9912512011404)"><circle class="outline" cx="0" cy="0" r="25" fill="#ECB5C9" stroke="#da7298" stroke-width="2px"/><text class="caption" text-anchor="middle" pointer-events="none" x="0" y="0" font-size="10px" fill="#2A2C34" font-family="sans-serif"> 11/3/2015</text><text class="caption" text-anchor="middle" pointer-events="none" x="0" y="10" font-size="10px" fill="#2A2C34" font-family="sans-serif"> 21:46:…</text></g><g class="node" aria-label="graph-node1157" transform="translate(-268.6587585012984,-35.597095242529925)"><circle class="outline" cx="0" cy="0" r="25" fill="#ECB5C9" stroke="#da7298" stroke-width="2px"/><text class="caption" text-anchor="middle" pointer-events="none" x="0" y="0" font-size="10px" fill="#2A2C34" font-family="sans-serif"> 11/3/2015</text><text class="caption" text-anchor="middle" pointer-events="none" x="0" y="10" font-size="10px" fill="#2A2C34" font-family="sans-serif"> 23:26:…</text></g><g class="node" aria-label="graph-node1149" transform="translate(-321.1562066094436,-118.26169665623507)"><circle class="outline" cx="0" cy="0" r="25" fill="#ECB5C9" stroke="#da7298" stroke-width="2px"/><text class="caption" text-anchor="middle" pointer-events="none" x="0" y="0" font-size="10px" fill="#2A2C34" font-family="sans-serif"> 11/1/2015</text><text class="caption" text-anchor="middle" pointer-events="none" x="0" y="10" font-size="10px" fill="#2A2C34" font-family="sans-serif"> 02:27:…</text></g><g class="node" aria-label="graph-node1141" transform="translate(-171.45875341079076,-37.39818216045497)"><circle class="outline" cx="0" cy="0" r="25" fill="#ECB5C9" stroke="#da7298" stroke-width="2px"/><text class="caption" text-anchor="middle" pointer-events="none" x="0" y="0" font-size="10px" fill="#2A2C34" font-family="sans-serif"> 11/3/2015</text><text class="caption" text-anchor="middle" pointer-events="none" x="0" y="10" font-size="10px" fill="#2A2C34" font-family="sans-serif"> 11:45:…</text></g><g class="node" aria-label="graph-node1193" transform="translate(-316.4051625124169,48.61817145567018)"><circle class="outline" cx="0" cy="0" r="25" fill="#ECB5C9" stroke="#da7298" stroke-width="2px"/><text class="caption" text-anchor="middle" pointer-events="none" x="0" y="0" font-size="10px" fill="#2A2C34" font-family="sans-serif"> 11/4/2015</text><text class="caption" text-anchor="middle" pointer-events="none" x="0" y="10" font-size="10px" fill="#2A2C34" font-family="sans-serif"> 05:06:…</text></g><g class="node" aria-label="graph-node733" transform="translate(-152.49288863912142,139.89543951196958)"><circle class="outline" cx="0" cy="0" r="25" fill="#ECB5C9" stroke="#da7298" stroke-width="2px"/><text class="caption" text-anchor="middle" pointer-events="none" x="0" y="5" font-size="10px" fill="#2A2C34" font-family="sans-serif"> 11/29/20…</text></g></g></svg>